<svg width="52" height="52" viewBox="0 0 52 52" fill="none" xmlns="http://www.w3.org/2000/svg">
<path d="M31.38 17.84C31.3267 18.44 31.2867 19.02 31.26 19.58C31.2467 20.14 31.24 20.5733 31.24 20.88C31.24 21.1733 31.2467 21.4533 31.26 21.72C31.2733 21.9867 31.2867 22.2133 31.3 22.4H30.84C30.6667 21.36 30.4267 20.5467 30.12 19.96C29.8133 19.36 29.4333 18.9333 28.98 18.68C28.54 18.4267 28.0133 18.3 27.4 18.3H26.74C26.3533 18.3 26.06 18.3333 25.86 18.4C25.66 18.4667 25.5267 18.6 25.46 18.8C25.3933 19 25.36 19.3067 25.36 19.72V29.76C25.36 30.28 25.4133 30.6667 25.52 30.92C25.6267 31.1733 25.8333 31.34 26.14 31.42C26.4467 31.5 26.9 31.5467 27.5 31.56V32C27.0867 31.9867 26.5533 31.9733 25.9 31.96C25.2467 31.9467 24.56 31.94 23.84 31.94C23.2667 31.94 22.7067 31.9467 22.16 31.96C21.6133 31.9733 21.12 31.9867 20.68 32V31.6C21.1067 31.5733 21.4267 31.52 21.64 31.44C21.8533 31.36 21.9933 31.2 22.06 30.96C22.14 30.72 22.18 30.36 22.18 29.88V19.96C22.18 19.4667 22.14 19.1067 22.06 18.88C21.9933 18.64 21.8467 18.48 21.62 18.4C21.4067 18.3067 21.0933 18.2533 20.68 18.24V17.84C21.2267 17.8533 21.8067 17.8667 22.42 17.88C23.0333 17.88 23.64 17.8867 24.24 17.9C24.84 17.9 25.4 17.9 25.92 17.9C26.44 17.9 26.8667 17.9 27.2 17.9C27.8133 17.9 28.5067 17.9 29.28 17.9C30.0667 17.8867 30.7667 17.8667 31.38 17.84ZM28.4 24.76C28.4 24.76 28.4 24.8267 28.4 24.96C28.4 25.0933 28.4 25.16 28.4 25.16H24.76C24.76 25.16 24.76 25.0933 24.76 24.96C24.76 24.8267 24.76 24.76 24.76 24.76H28.4ZM28.9 22.12C28.8467 22.88 28.82 23.46 28.82 23.86C28.8333 24.26 28.84 24.6267 28.84 24.96C28.84 25.2933 28.8467 25.66 28.86 26.06C28.8733 26.46 28.9067 27.04 28.96 27.8H28.5C28.42 27.3333 28.2933 26.9 28.12 26.5C27.9467 26.1 27.6933 25.78 27.36 25.54C27.0267 25.2867 26.5933 25.16 26.06 25.16V24.76C26.46 24.76 26.7933 24.68 27.06 24.52C27.34 24.3467 27.5733 24.1267 27.76 23.86C27.9467 23.58 28.0933 23.2867 28.2 22.98C28.3067 22.6733 28.3867 22.3867 28.44 22.12H28.9Z" fill="white"/>
<circle cx="26" cy="26" r="25" stroke="url(#paint0_linear_4_99)" stroke-width="2"/>
<defs>
<linearGradient id="paint0_linear_4_99" x1="10.6557" y1="6.19048" x2="40.0539" y2="48.3599" gradientUnits="userSpaceOnUse">
<stop stop-color="#F858E8"/>
<stop offset="1" stop-color="#6D0ECB"/>
</linearGradient>
</defs>
</svg>
